<?xml version="1.0" encoding="UTF-8"?>
<svg width="142px" height="33px" viewBox="0 0 142 33" version="1.1" xmlns="http://www.w3.org/2000/svg" xmlns:xlink="http://www.w3.org/1999/xlink">
    <title>Logo / Fairstone_reversed_en</title>
    <g id="Symbols" stroke="none" stroke-width="1" fill="none" fill-rule="evenodd">
        <g id="Header-/-Login" transform="translate(-24.000000, -20.000000)" fill-rule="nonzero">
            <g id="Group" transform="translate(24.000000, 20.000000)">
                <g id="Fairstone_Logo_Bi" transform="translate(0.000591, 0.001403)">
                    <path d="M36.1406284,16.2694484 L43.7012225,16.2694484 L43.7012225,13.0935584 L33.0466419,13.0935584 C32.7799566,13.0935584 32.5637654,13.3065467 32.5637654,13.5692812 L32.5637654,32.1224693 L36.1406284,32.1224693 L36.1406284,23.6651756 L42.2615351,23.6651756 L42.2615351,20.4628565 L36.1406284,20.4628565 L36.1406284,16.2694484 Z" id="Path" fill="#52356E"></path>
                    <path d="M48.9949796,19.084017 C47.3282073,19.0762648 45.6814856,19.4423049 44.1796279,20.1545177 L45.1409098,22.4362251 C46.2715688,21.9577165 47.487274,21.7047035 48.7177727,21.691807 C50.4793777,21.691807 51.2618165,22.4142009 51.2618165,23.4537432 L51.2618165,24.7223373 C50.5330307,24.1761371 48.9189713,23.8810128 48.0381688,23.8810128 C45.6193152,23.8810128 42.7935935,24.9734132 42.7935935,27.8762031 C42.7935935,30.3341041 44.6088514,32.4924759 48.5657561,32.4924759 C51.5390234,32.4924759 53.4302897,31.6996046 54.413927,30.9287575 L54.413927,24.2025661 C54.413927,21.0751294 53.278273,19.084017 48.9949796,19.084017 Z M51.2618165,29.5852812 C50.5096878,29.9513385 49.6768142,30.1269511 48.8384919,30.0962427 C47.2289035,30.0962427 46.2184398,29.2505133 46.2184398,27.933466 C46.2184398,26.8190414 47.3540937,26.1979588 48.6149379,26.1979588 C49.585884,26.2112631 50.5266156,26.532552 51.2975851,27.1141657 L51.2618165,29.5852812 Z" id="Shape" fill="#52356E"></path>
                    <ellipse id="Oval" fill="#52356E" cx="58.3216498" cy="15.1285947" rx="2.06563835" ry="2.0350363"></ellipse>
                    <rect id="Rectangle" fill="#52356E" x="56.6807639" y="19.4365287" width="3.29965607" height="12.6859406"></rect>
                    <path d="M68.4754695,19.0841415 C66.9642449,19.0841415 65.9582522,20.7976244 65.6542188,21.4407311 L65.6542188,19.4365287 L62.3813892,19.4365287 L62.3813892,32.1224693 L65.6542188,32.1224693 L65.6542188,25.1231778 C65.6542188,23.8545837 66.4366576,22.1190766 67.8897582,22.1190766 C68.5319517,22.1408729 69.1498231,22.3664384 69.6513632,22.7621833 L70.7870171,19.7096288 C70.0953192,19.2825786 69.2915392,19.0650818 68.4754695,19.0841415 Z" id="Path" fill="#52356E"></path>
                    <path d="M74.5784919,22.6080139 C74.5784919,21.8900249 75.3117488,21.4671602 76.1701959,21.4671602 C77.4042136,21.4671602 78.5890494,22.4362251 78.8126034,22.6828961 L79.9974392,20.449642 C78.7410948,19.4819649 77.1832637,18.9729751 75.5889556,19.0092592 C72.8660687,19.0092592 71.117877,20.8240535 71.117877,22.7842075 C71.117877,26.109862 76.6620145,26.9555914 76.6620145,28.6426453 C76.6620145,29.7614748 75.7677988,30.0830282 74.9719468,30.0830282 C73.6486743,29.9828702 72.3974432,29.4494779 71.4174392,28.567763 L70.210248,30.9023285 C71.653697,31.9553974 73.4038482,32.5208684 75.1999718,32.5145533 C78.1464127,32.5145533 80.0376789,30.9772108 80.0376789,28.5193098 C80.0242657,24.9469841 74.5784919,24.5505485 74.5784919,22.6080139 Z" id="Path" fill="#52356E"></path>
                    <polygon id="Path" fill="#52356E" points="86.4223793 15.2078818 83.1227232 15.2078818 83.1227232 19.4365287 80.6770432 19.4365287 80.6770432 22.0177652 83.1227232 22.0177652 83.1227232 32.1224693 86.4223793 32.1224693 86.4223793 22.0177652 89.5968452 22.0177652 89.5968452 19.4365287 86.4223793 19.4365287"></polygon>
                    <path d="M96.7416289,19.0841415 C92.7176581,19.0841415 89.6862667,22.0882427 89.6862667,25.8367619 C89.6862667,29.5852812 92.7310713,32.4924759 96.6790338,32.4924759 C99.2111852,32.6602829 101.628407,31.4286904 102.952873,29.2959082 C104.277338,27.163126 104.289854,24.4821214 102.985357,22.3374272 C101.68086,20.1927329 99.2752399,18.9392878 96.7416289,19.0841415 L96.7416289,19.0841415 Z M96.6387941,29.9861217 C94.8235362,29.9861217 93.1379395,28.2726387 93.1379395,25.9116442 C93.1379395,23.431719 94.6715195,21.7182361 96.7416289,21.7182361 C98.6060687,21.7182361 100.166475,23.431719 100.166475,25.8367619 C100.166475,28.2990678 98.7580854,29.9640975 96.6387941,29.9640975 L96.6387941,29.9861217 Z" id="Shape" fill="#52356E"></path>
                    <path d="M112.296512,19.0841415 C110.773039,19.1199607 109.317732,19.7135602 108.214417,20.7491712 L108.214417,19.4365287 L104.914761,19.4365287 L104.914761,32.1224693 L108.214417,32.1224693 L108.214417,23.3348125 C108.903055,22.5095702 109.904973,21.9985204 110.986486,21.9208587 C112.976116,21.9208587 113.253323,23.2423109 113.253323,25.3434198 L113.253323,32.1224693 L116.552979,32.1224693 L116.552979,23.6299368 C116.530623,20.4540469 115.046225,19.0841415 112.296512,19.0841415 Z" id="Path" fill="#52356E"></path>
                    <path d="M124.645631,19.0841415 C120.62166,19.0841415 117.764641,21.9649071 117.764641,25.8367619 C117.764641,29.9112394 120.639544,32.5145001 124.896011,32.5145001 C127.770915,32.5145001 129.733719,31.523411 130.417794,30.9507817 L129.456512,28.6955034 C128.36722,29.5368445 127.012769,29.9748845 125.629268,29.9332636 C123.612812,29.9332636 121.444339,29.3870634 121.091123,27.0304737 L130.896199,27.0304737 L130.896199,25.7662845 C130.896199,22.1939588 128.830561,19.0841415 124.645631,19.0841415 Z M121.091123,24.5769775 C121.471165,22.71373 122.781191,21.5949005 124.667986,21.5949005 C126.456418,21.5949005 127.565245,22.9604011 127.587601,24.5769775 L121.091123,24.5769775 Z" id="Shape" fill="#52356E"></path>
                    <g id="Logosymbol">
                        <path d="M14.8027651,8.9623388 L18.1597743,12.323742 C18.2488623,12.412032 18.2989789,12.5322589 18.2989789,12.6576853 C18.2989789,12.7831118 18.2488623,12.9033386 18.1597743,12.9916287 L14.8027651,16.3530319 C14.7139387,16.4405672 14.6639265,16.5600682 14.6639265,16.6847782 C14.6639265,16.8094882 14.7139387,16.9289892 14.8027651,17.0165245 L17.6368894,19.8550428 C17.7251794,19.9441307 17.8454063,19.9942474 17.9708327,19.9942474 C18.0962591,19.9942474 18.216486,19.9441307 18.304776,19.8550428 L25.1681902,12.9872347 C25.2572781,12.8989446 25.3073948,12.7787178 25.3073948,12.6532913 C25.3073948,12.5278649 25.2572781,12.407638 25.1681902,12.319348 L18.304776,5.4471459 C18.216486,5.35805798 18.0962591,5.30794128 17.9708327,5.30794128 C17.8454063,5.30794128 17.7251794,5.35805798 17.6368894,5.4471459 L14.8027651,8.28127018 C14.7095411,8.37001343 14.6567747,8.49309518 14.6567747,8.62180449 C14.6567747,8.75051379 14.7095411,8.87359554 14.8027651,8.9623388 Z" id="Path" fill="#FF6754"></path>
                        <path d="M0.135622736,12.9872347 L12.3201601,25.1673781 C12.4084501,25.256466 12.528677,25.3065827 12.6541034,25.3065827 C12.7795299,25.3065827 12.8997567,25.256466 12.9880468,25.1673781 L16.5823315,21.5730933 C16.6714194,21.4848033 16.7215361,21.3645764 16.7215361,21.23915 C16.7215361,21.1137236 16.6714194,20.9934967 16.5823315,20.9052067 L12.6936494,17.0165245 C12.6045614,16.9282345 12.5544447,16.8080076 12.5544447,16.6825812 C12.5544447,16.5571548 12.6045614,16.4369279 12.6936494,16.3486379 L16.0506586,12.9872347 C16.1397465,12.8989446 16.1898632,12.7787178 16.1898632,12.6532913 C16.1898632,12.5278649 16.1397465,12.407638 16.0506586,12.319348 L12.6892554,8.9623388 C12.5089571,8.77792041 12.5089571,8.48326453 12.6892554,8.29884614 L16.5823315,4.40577001 C16.6714194,4.31747998 16.7215361,4.1972531 16.7215361,4.07182668 C16.7215361,3.94640026 16.6714194,3.82617338 16.5823315,3.73788336 L12.9880468,0.139204626 C12.8997567,0.0501166984 12.7795299,-8.7191324e-17 12.6541034,-8.7191324e-17 C12.528677,-8.7191324e-17 12.4084501,0.0501166984 12.3201601,0.139204626 L0.135622736,12.319348 C-0.0452075785,12.505257 -0.0452075785,12.8013256 0.135622736,12.9872347 Z" id="Path" fill="#52356E"></path>
                    </g>
                    <g id="Group" transform="translate(130.256835, 19.395627)" fill="#52356E">
                        <polygon id="Path" points="-4.3353e-13 0.36407355 0.697029703 0.36407355 0.697029703 2.10353607 1.08910891 2.10353607 1.08910891 0.36407355 1.82970297 0.36407355 1.82970297 0.0404526167 -4.3353e-13 0.0404526167"></polygon>
                        <polygon id="Path" points="3.83366337 0.0404526167 3.22376238 1.65855728 3.22376238 1.65855728 2.61386139 0.0404526167 2.04752475 0.0404526167 2.04752475 2.10353607 2.43960396 2.10353607 2.43960396 0.525884017 2.43960396 0.525884017 3.04950495 2.10353607 3.3980198 2.10353607 4.00792079 0.525884017 4.00792079 0.525884017 4.00792079 2.10353607 4.4 2.10353607 4.4 0.0404526167"></polygon>
                        <polygon id="Path" points="5.57623762 1.47758593e-14 5.88118812 1.47758593e-14 5.00990099 2.14398868 4.66138614 2.14398868"></polygon>
                        <path d="M10.4554455,0.687694484 C10.3683168,0.444978784 10.2376238,0.283168317 9.88910891,0.283168317 C9.40990099,0.283168317 9.19207921,0.687694484 9.19207921,1.09222065 C9.19207921,1.49674682 9.40990099,1.90127298 9.88910891,1.90127298 C10.2376238,1.90127298 10.4118812,1.65855728 10.4554455,1.37538897 L10.8475248,1.37538897 C10.8039604,1.86082037 10.4554455,2.22489392 9.88910891,2.22489392 C9.23564356,2.22489392 8.8,1.73946252 8.8,1.13267327 C8.8,0.525884017 9.19207921,0.0404526167 9.88910891,0.0404526167 C10.4118812,0.0404526167 10.8039604,0.283168317 10.8475248,0.768599717 L10.4554455,0.768599717 L10.4554455,0.687694484 Z" id="Path"></path>
                        <polygon id="Path" points="6.18613861 0.0404526167 6.70891089 0.0404526167 7.31881188 1.65855728 7.36237624 1.65855728 7.92871287 0.0404526167 8.4950495 0.0404526167 8.4950495 2.10353607 8.1029703 2.10353607 8.1029703 0.525884017 8.1029703 0.525884017 7.49306931 2.10353607 7.18811881 2.10353607 6.53465347 0.525884017 6.53465347 0.525884017 6.53465347 2.10353607 6.18613861 2.10353607"></polygon>
                    </g>
                </g>
            </g>
        </g>
    </g>
</svg>